<?xml version="1.0" standalone="no"?>
<!DOCTYPE svg PUBLIC "-//W3C//DTD SVG 20010904//EN"
 "http://www.w3.org/TR/2001/REC-SVG-20010904/DTD/svg10.dtd">
<svg version="1.0" xmlns="http://www.w3.org/2000/svg"
 width="200.000000pt" height="200.000000pt" viewBox="0 0 200.000000 200.000000"
 preserveAspectRatio="xMidYMid meet">

<g transform="translate(0.000000,200.000000) scale(0.100000,-0.100000)"
fill="#000000" stroke="none">
<path d="M885 1830 c-278 -44 -509 -210 -631 -455 -66 -133 -87 -224 -87 -375
0 -151 21 -242 87 -375 81 -164 206 -289 371 -371 133 -66 224 -87 375 -87
151 0 242 21 375 87 215 107 373 303 436 541 30 112 30 298 0 410 -95 360
-403 611 -775 629 -50 3 -118 1 -151 -4z m279 -190 c119 -30 209 -82 301 -175
131 -131 195 -283 195 -465 0 -182 -64 -334 -195 -465 -131 -131 -283 -195
-465 -195 -182 0 -334 64 -465 195 -169 169 -234 400 -175 629 58 229 244 416
472 476 99 26 232 26 332 0z"/>
<path d="M860 1305 c-16 -17 -24 -37 -24 -61 0 -31 12 -46 104 -139 l103 -104
-97 -102 c-54 -57 -102 -114 -107 -127 -20 -52 25 -112 84 -112 26 0 53 22
179 148 82 81 151 157 155 170 10 41 -17 79 -157 216 -130 128 -140 136 -177
136 -29 0 -46 -7 -63 -25z"/>
</g>
</svg>
